<?xml version="1.0" encoding="iso-8859-1"?>
<!-- Generator: Adobe Illustrator 19.0.0, SVG Export Plug-In . SVG Version: 6.00 Build 0)  -->
<svg version="1.1" id="Layer_1" xmlns="http://www.w3.org/2000/svg" xmlns:xlink="http://www.w3.org/1999/xlink" x="0px" y="0px"
	 viewBox="0 0 512 512" style="enable-background:new 0 0 512 512;" xml:space="preserve">
<g>
	<g>
		<g>
			<path d="M469.333,114.797V10.667C469.333,4.771,464.563,0,458.667,0S448,4.771,448,10.667v76.569C401.051,33.888,332.487,0,256,0
				C114.833,0,0,114.844,0,256s114.833,256,256,256s256-114.844,256-256C512,203.831,496.237,155.309,469.333,114.797z M256,490.667
				C126.604,490.667,21.333,385.396,21.333,256S126.604,21.333,256,21.333c79.357,0,149.509,39.695,192,100.165v162.085
				l-53.333,53.333l-13.792-13.792c-4.167-4.167-10.917-4.167-15.083,0l-64,64c-4.167,4.167-4.167,10.917,0,15.083L315.583,416
				l-13.792,13.792c-4.167,4.167-4.167,10.917,0,15.083c2.083,2.083,4.813,3.125,7.542,3.125c2.729,0,5.458-1.042,7.542-3.125
				l13.792-13.792l13.792,13.792c2.083,2.083,4.813,3.125,7.542,3.125c2.729,0,5.458-1.042,7.542-3.125l64-64
				c4.167-4.167,4.167-10.917,0-15.083L409.75,352l56.458-56.458c2-2,3.125-4.708,3.125-7.542V158.81
				c13.568,29.658,21.333,62.501,21.333,97.19C490.667,385.396,385.396,490.667,256,490.667z M400.917,373.333L352,422.25
				l-27.583-27.583l48.917-48.917L400.917,373.333z"/>
			<path d="M362.667,256c0-58.813-47.854-106.667-106.667-106.667S149.333,197.188,149.333,256S197.188,362.667,256,362.667
				S362.667,314.813,362.667,256z M256,341.333c-47.063,0-85.333-38.281-85.333-85.333s38.271-85.333,85.333-85.333
				s85.333,38.281,85.333,85.333S303.063,341.333,256,341.333z"/>
			<circle cx="256" cy="256" r="21.333"/>
			<path d="M266.667,74.667C266.667,68.771,261.896,64,256,64c-51.417,0-99.708,20.052-136,56.469
				c-4.146,4.177-4.146,10.927,0.042,15.083c2.083,2.073,4.792,3.115,7.521,3.115s5.479-1.042,7.563-3.135
				c32.25-32.375,75.188-50.198,120.875-50.198C261.896,85.333,266.667,80.563,266.667,74.667z"/>
		</g>
	</g>
</g>
<g>
</g>
<g>
</g>
<g>
</g>
<g>
</g>
<g>
</g>
<g>
</g>
<g>
</g>
<g>
</g>
<g>
</g>
<g>
</g>
<g>
</g>
<g>
</g>
<g>
</g>
<g>
</g>
<g>
</g>
</svg>
