<svg id="Capa_1" enable-background="new 0 0 512 512" height="512" viewBox="0 0 512 512" width="512" xmlns="http://www.w3.org/2000/svg"><g><path d="m256 250c8.284 0 15-6.716 15-15v-120c0-8.284-6.716-15-15-15s-15 6.716-15 15v120c0 8.284 6.716 15 15 15z"/><path d="m331 215v-80c0-8.284-6.716-15-15-15s-15 6.716-15 15v80c0 8.284 6.716 15 15 15s15-6.716 15-15z"/><path d="m391 195v-40c0-8.284-6.716-15-15-15s-15 6.716-15 15v40c0 8.284 6.716 15 15 15s15-6.716 15-15z"/><path d="m136 140c-8.284 0-15 6.716-15 15v40c0 8.284 6.716 15 15 15s15-6.716 15-15v-40c0-8.284-6.716-15-15-15z"/><path d="m196 120c-8.284 0-15 6.716-15 15v80c0 8.284 6.716 15 15 15s15-6.716 15-15v-80c0-8.284-6.716-15-15-15z"/><path d="m491 282.605v-47.605c0-62.771-24.444-121.784-68.83-166.169-44.386-44.387-103.399-68.831-166.17-68.831s-121.784 24.444-166.17 68.83c-44.386 44.385-68.83 103.399-68.83 166.17v47.606c-12.208 10.096-20 25.352-20 42.394v40c0 30.327 24.673 55 55 55h7.58c6.192 17.459 22.865 30 42.42 30 24.813 0 45-20.187 45-45v-120c0-24.813-20.187-45-45-45-19.555 0-36.228 12.541-42.42 30h-7.58c-1.686 0-3.352.088-5 .238v-35.238c0-113.037 91.963-205 205-205s205 91.962 205 205v35.238c-1.648-.149-3.314-.238-5-.238h-7.58c-6.192-17.459-22.865-30-42.42-30-24.813 0-45 20.187-45 45v120c0 24.813 20.187 45 45 45 19.555 0 36.228-12.541 42.42-30h7.58c1.686 0 3.352-.088 5-.238v27.238c0 19.299-15.701 35-35 35h-170c-8.284 0-15 6.716-15 15s6.716 15 15 15h170c35.841 0 65-29.159 65-65v-39.605c12.208-10.096 20-25.352 20-42.395v-40c0-17.042-7.792-32.298-20-42.395zm-385-12.605c8.271 0 15 6.729 15 15v120c0 8.271-6.729 15-15 15s-15-6.729-15-15v-120c0-8.271 6.729-15 15-15zm-45 30v90h-5c-13.785 0-25-11.215-25-25v-40c0-13.785 11.215-25 25-25zm345 120c-8.271 0-15-6.729-15-15v-120c0-8.271 6.729-15 15-15s15 6.729 15 15v120c0 8.271-6.729 15-15 15zm45-30v-90h5c13.785 0 25 11.215 25 25v40c0 13.785-11.215 25-25 25z"/></g></svg>